<svg id="Layer_1" data-name="Layer 1" xmlns="http://www.w3.org/2000/svg" viewBox="0 0 383.39 352.37"><defs><style>.cls-1,.cls-4{fill:#00000e;}.cls-2,.cls-3{fill:none;}.cls-2,.cls-4{stroke:#00000e;stroke-miterlimit:10;}.cls-2{stroke-width:7px;}.cls-3{stroke:#00000b;stroke-linecap:round;stroke-linejoin:round;stroke-width:6px;}.cls-4{stroke-width:2px;}</style></defs><path class="cls-1" d="M700.83,275.11a6.19,6.19,0,0,1,.16,3.17c-7.08,35.94-27.54,67-48,96.61-10.53,15.21-21.29,29.25-35.8,40.9a268.42,268.42,0,0,1-45.59,29.63,273.29,273.29,0,0,1-46.77,18.7c2.18,1.81,4.56,3.44,6.7,5.23a98.65,98.65,0,0,1,13,13.09c7.4,9,14.86,19.76,15.11,31.83.5,24.5-28.68,35.45-49.32,40.25-.62,0-1.24,0-1.87,0l-.7-.15a7.43,7.43,0,0,0-.81-.09l-.24-.08c2.53-1.41,5-1.65,7.84-2.1,1.93-.32,3.86-.7,5.77-1.15.73-2.86-.38-6.05-4.11-6.81-2.12-.44-4.59-1-7.27-1.63,17.05-4.09,43.53-13.31,37.89-33.21-2.73-9.62-10-18.28-17-25.25-5.87-5.91-13.88-10.39-18.94-17.1a4.86,4.86,0,0,1-1.27-.63c3.12-2.42,3.6-8-.4-10.08a6.11,6.11,0,0,1,1.85-.79l.22-.06a6.34,6.34,0,0,1,3.18-.85,260.62,260.62,0,0,0,89.24-43.4c14.62-11,26-23.77,36.41-38.76,9.75-14,19.48-28.14,28-43,8.35-14.6,15.26-29.89,19.47-46.13q-24.93,2.23-49.55,6.78-14.58,2.71-29,6.23c-8.07,2-15.2,4.27-19.79,11.65-4,6.41-5.94,13.8-8.24,20.92-2.48,7.71-5.09,15.39-7.93,23-5.74,15.35-12.34,30.47-20.66,44.62C543.24,412,532,426.35,518.2,438.08a6.24,6.24,0,0,1-2.82,1.4,5,5,0,0,1-1.46.62l-1.35.33a6,6,0,0,0-1.5-10.91L508.9,429l1.83-.45.26,0c25.25-22.1,40.59-52.51,51.89-83.63,2.85-7.84,5.45-15.76,8-23.71,2.31-7.24,4.77-14.79,9.19-21.06,10.67-15.12,31.35-17,48.17-20.31a556.72,556.72,0,0,1,66.94-9.11A5.05,5.05,0,0,1,700.83,275.11Z" transform="translate(-317.73 -202.18)"/><path class="cls-1" d="M687.54,283.29c-4.21,16.24-11.12,31.53-19.47,46.13-8.49,14.85-18.22,28.95-28,43-10.39,15-21.79,27.75-36.41,38.76a260.62,260.62,0,0,1-89.24,43.4,6.34,6.34,0,0,0-3.18.85l-.22.06a6.11,6.11,0,0,0-1.85.79,6.08,6.08,0,0,0-1.4-.53l-.22-.06a6.24,6.24,0,0,0-3.18-.85,260.62,260.62,0,0,1-89.24-43.4c-14.62-11-26-23.78-36.41-38.76-9.75-14.05-19.48-28.14-28-43-8.35-14.61-15.27-29.89-19.47-46.13q24.92,2.22,49.55,6.78,14.58,2.71,29,6.23c8.07,2,15.19,4.26,19.79,11.65,4,6.41,5.94,13.8,8.23,20.92,2.49,7.71,5.1,15.38,7.94,23,5.74,15.36,12.34,30.48,20.66,44.63,9.15,15.55,20.44,29.88,34.19,41.61a6.24,6.24,0,0,0,2.82,1.4,5.27,5.27,0,0,0,1.46.62l2.95.73a6.26,6.26,0,0,0,4.62-.61l.07-.05,1.35-.33a5,5,0,0,0,1.46-.62,6.24,6.24,0,0,0,2.82-1.4c13.75-11.73,25-26.06,34.19-41.61,8.32-14.15,14.92-29.27,20.66-44.62,2.84-7.59,5.45-15.27,7.93-23,2.3-7.12,4.25-14.51,8.24-20.92,4.59-7.38,11.72-9.67,19.79-11.65q14.4-3.53,29-6.23Q662.59,285.48,687.54,283.29Z" transform="translate(-317.73 -202.18)"/><path class="cls-1" d="M575.27,266.23c0,.37-.09.73-.15,1.1l-2.91-.54L511.17,368h0a1.55,1.55,0,0,0-.14-.29,2.06,2.06,0,0,0-1.24-1,2,2,0,0,0-1.6.21l0,0L446.46,266l-2.85-.14c1.56-34.86,30-62.73,64-63.65C543.09,201.24,573.82,229.83,575.27,266.23Zm-4.13-5.11c0-1.39,0-2.78,0-4.17a1,1,0,0,0-2.08,0c0,1.3.06,2.6.05,3.9a16.3,16.3,0,0,1-.56,3.66,31.41,31.41,0,0,1-2.71,7.11c-.62,1.18,1.17,2.24,1.8,1.05a33.44,33.44,0,0,0,2.92-7.61A18.8,18.8,0,0,0,571.14,261.12Zm-11.59-5.73c1.07-9.12-2.56-14-10.58-17.78-12.13-5.66-29.69-5.65-39.5,3.88-9.8-9.53-27.36-9.54-39.49-3.88-8,3.74-11.65,8.66-10.58,17.78a68.35,68.35,0,0,0,9.65,27.28,7.84,7.84,0,0,0,.91,1.23,450.58,450.58,0,0,0,33.17,44.24,6.76,6.76,0,0,0,12.69,0A450.58,450.58,0,0,0,549,283.9a7.84,7.84,0,0,0,.91-1.23A68.35,68.35,0,0,0,559.55,255.39ZM451.35,273c.63,1.18,2.42.13,1.8-1a31.3,31.3,0,0,1-2.71-7.12,16.21,16.21,0,0,1-.56-3.66c0-1.3,0-2.6,0-3.9a1,1,0,0,0-2.08,0c0,1.39-.07,2.79,0,4.17a18.8,18.8,0,0,0,.62,3.94A33.51,33.51,0,0,0,451.35,273Z" transform="translate(-317.73 -202.18)"/><path class="cls-1" d="M571.1,257c0,1.39.08,2.78,0,4.17a18.8,18.8,0,0,1-.62,3.94,33.44,33.44,0,0,1-2.92,7.61c-.63,1.19-2.42.13-1.8-1.05a31.41,31.41,0,0,0,2.71-7.11,16.3,16.3,0,0,0,.56-3.66c0-1.3,0-2.6-.05-3.9A1,1,0,0,1,571.1,257Z" transform="translate(-317.73 -202.18)"/><path class="cls-1" d="M549,237.61c8,3.74,11.65,8.66,10.58,17.78a68.35,68.35,0,0,1-9.65,27.28,7.84,7.84,0,0,1-.91,1.23,450.58,450.58,0,0,1-33.17,44.24,6.76,6.76,0,0,1-12.69,0A450.58,450.58,0,0,1,470,283.9a7.84,7.84,0,0,1-.91-1.23,68.35,68.35,0,0,1-9.65-27.28c-1.07-9.12,2.56-14,10.58-17.78,12.13-5.66,29.69-5.65,39.49,3.88C519.28,232,536.84,232,549,237.61Zm-3.38,18.23c.59-3.43.73-3.32-1.36-5.2-5.17-4.63-19.5-5-25.21.69-1.48,2.67-2.92,5.37-4.27,8.11a32.18,32.18,0,0,0-1.93,4.38c-.5,1.61-.65,3.09-1.73,4.46s-3,.37-3.47-.92c-.22-.6-.48-1.17-.72-1.76a2.24,2.24,0,0,1-.35-.67,29,29,0,0,0-2.15-4.83,32.19,32.19,0,0,1-1.94-4.42,8.27,8.27,0,0,1-.54-1.24c-3-8.81-21.22-9.15-27.2-3.8-2.09,1.88-2,1.77-1.36,5.2a56.14,56.14,0,0,0,1.38,5.9c.08.29.16.58.25.86a57.16,57.16,0,0,0,5.8,12.73,3.68,3.68,0,0,1,.32.37,426.41,426.41,0,0,0,28.36,38.55,424.61,424.61,0,0,0,28.37-38.55,3.68,3.68,0,0,1,.32-.37A57.16,57.16,0,0,0,544,262.6q.28-.93.54-1.89C544.93,259.11,545.3,257.48,545.59,255.84Z" transform="translate(-317.73 -202.18)"/><path class="cls-1" d="M546.78,509.33c5.64,19.9-20.84,29.12-37.89,33.21-17.06-4.23-42.34-13.47-36.82-33,2.72-9.61,10.05-18.28,17-25.24,5.86-5.91,13.88-10.4,18.94-17.11a5.3,5.3,0,0,0,1.62-.88,4.86,4.86,0,0,0,1.27.63c5.06,6.71,13.07,11.19,18.94,17.1C536.73,491.05,544.05,499.71,546.78,509.33Z" transform="translate(-317.73 -202.18)"/><path class="cls-1" d="M543.06,257.23a10.94,10.94,0,0,1-.32,3c-1.49,5.87-7.8,9.25-13,11.67-3.46,1.6-6.73,3.34-9.34,6.19a29.19,29.19,0,0,0-5.67,9.75,82.48,82.48,0,0,0-3.19,12.79,53.56,53.56,0,0,0-2.13-14.07,95.35,95.35,0,0,1,3.25-9.71,94.48,94.48,0,0,1,4.56-10.72,12.47,12.47,0,0,1,8-6.17c4.63-1.38,9.33-2.57,14-3.84l.14,0,1-.71a1.11,1.11,0,0,1,.58-.19,1.09,1.09,0,0,1,.62,0,1.18,1.18,0,0,1,.53.28,1.14,1.14,0,0,1,.4.44l.06.14A1.48,1.48,0,0,1,543.06,257.23Zm-9.2,9.1c2.64-1.62,5.15-4.06,5.87-7.11-4.71,1.28-9.49,2.44-14.15,3.9a8.68,8.68,0,0,0-5.09,3.56,37,37,0,0,0-2.77,5.87c-1.2,2.86-2.37,5.75-3.41,8.68a29.89,29.89,0,0,1,1.63-2.56,24.78,24.78,0,0,1,7.83-7.25C527,269.53,530.64,268.31,533.86,266.33Z" transform="translate(-317.73 -202.18)"/><path class="cls-1" d="M539.73,259.22c-.72,3-3.23,5.49-5.87,7.11-3.22,2-6.83,3.2-10.09,5.09a24.78,24.78,0,0,0-7.83,7.25,29.89,29.89,0,0,0-1.63,2.56c1-2.93,2.21-5.82,3.41-8.68a37,37,0,0,1,2.77-5.87,8.68,8.68,0,0,1,5.09-3.56C530.24,261.66,535,260.5,539.73,259.22Z" transform="translate(-317.73 -202.18)"/><path class="cls-1" d="M516.16,544.17c3.73.76,4.84,4,4.11,6.81-1.91.45-3.84.83-5.77,1.15-2.8.45-5.31.69-7.84,2.1-2.49-.82-4.93-1.71-7.42-2.55l-.38-.1c-1.21-3.05-.28-6.83,3.83-7.67,1.84-.38,3.93-.83,6.2-1.37C511.57,543.2,514,543.73,516.16,544.17Z" transform="translate(-317.73 -202.18)"/><path class="cls-1" d="M514.65,432.28a6,6,0,0,1-2.08,8.15l-1.6.4a6.31,6.31,0,0,1-4.62-.6,6.17,6.17,0,0,1-2.76-3.59,6,6,0,0,1,4.19-7.38l1.12-.28,2.17.54A6.11,6.11,0,0,1,514.65,432.28Z" transform="translate(-317.73 -202.18)"/><path class="cls-1" d="M513.18,370.11a1.19,1.19,0,0,1,0,.32l-.13.17a1,1,0,0,1,0,.17.61.61,0,0,0,0,.12.5.5,0,0,1-.14.15l-.07,0a5.16,5.16,0,0,1-.54.86,6.11,6.11,0,0,1-1.23,1.15,0,0,0,0,0,0,0l-.05.06a3.86,3.86,0,0,1-.8.3,3.52,3.52,0,0,1-1.48,0,2.66,2.66,0,0,1-.68-.26,2.56,2.56,0,0,1-.59-.43,4.25,4.25,0,0,1-.62-.78l-.14-.22h0a.46.46,0,0,1-.16-.11,1.57,1.57,0,0,1-.21-.24,1,1,0,0,1-.1-.17.6.6,0,0,1-.06-.19s0,0,0,0a2.56,2.56,0,0,1-.32-.64c0-.19-.05-.37-.07-.56a2,2,0,0,1,.44-1.26,1.67,1.67,0,0,1,.59-.53l.5-.21a.53.53,0,0,1,.12,0,3,3,0,0,1,.83-.82l1.83,3,1.19-2a2.18,2.18,0,0,1,1.4.61A2.06,2.06,0,0,1,513.18,370.11Z" transform="translate(-317.73 -202.18)"/><path class="cls-1" d="M512.57,440.43l-.07.05a6.26,6.26,0,0,1-4.62.61l-2.95-.73a5.27,5.27,0,0,1-1.46-.62,6.24,6.24,0,0,1-2.82-1.4c-13.75-11.73-25-26.06-34.19-41.61-8.32-14.15-14.92-29.27-20.66-44.63-2.84-7.59-5.45-15.26-7.94-23-2.29-7.12-4.24-14.51-8.23-20.92-4.6-7.39-11.72-9.68-19.79-11.65q-14.4-3.53-29-6.23-24.6-4.59-49.55-6.78c4.2,16.24,11.12,31.52,19.47,46.13,8.49,14.85,18.22,28.94,28,43,10.39,15,21.79,27.75,36.41,38.76a260.62,260.62,0,0,0,89.24,43.4,6.24,6.24,0,0,1,3.18.85l.22.06a6.08,6.08,0,0,1,1.4.53c-3.64,2.33-2.9,7.9.4,10.08a5.3,5.3,0,0,1-1.62.88c-5.06,6.71-13.08,11.2-18.94,17.11-6.92,7-14.25,15.63-17,25.24-5.52,19.49,19.76,28.73,36.82,33-2.27.54-4.36,1-6.2,1.37-4.11.84-5,4.62-3.83,7.67l.38.1c2.49.84,4.93,1.73,7.42,2.55l-.1.07c-20.47-5-47.79-16.06-47.31-39.77.25-12.08,7.71-22.84,15.11-31.83a99.33,99.33,0,0,1,13-13.1c2.14-1.78,4.52-3.42,6.7-5.23a272.44,272.44,0,0,1-46.77-18.69,269,269,0,0,1-45.59-29.63c-14.51-11.66-25.28-25.7-35.8-40.91-20.5-29.64-41-60.66-48-96.6a6.19,6.19,0,0,1,.16-3.17,5,5,0,0,1,5.67-4.45,558.28,558.28,0,0,1,66.93,9.1c16.83,3.36,37.51,5.19,48.18,20.31,4.42,6.28,6.88,13.82,9.19,21.07,2.53,7.94,5.13,15.86,8,23.7,11.3,31.13,26.64,61.54,51.89,83.64l.26.05.78.19-1.12.28a6,6,0,0,0-1.43,11,6.31,6.31,0,0,0,4.62.6Z" transform="translate(-317.73 -202.18)"/><path class="cls-1" d="M511.5,300.65v.08a1.77,1.77,0,0,1-.06.42s0,0,0,.06a1.1,1.1,0,0,1,0,.62.14.14,0,0,1,0,.06l-.16.39a0,0,0,0,0,0,0,.1.1,0,0,1,0,.05v0l-.26.33-.08.08a2.72,2.72,0,0,1-.41.3l-.39.17h-.1a.91.91,0,0,1-.23,0l-.24,0h-.08c-.11,0-.21,0-.32,0a1.27,1.27,0,0,1-.43-.05l-.37-.16h0a1.28,1.28,0,0,1-.29-.23,1.15,1.15,0,0,1-.21-.27l0-.05c-.06-.12-.11-.24-.16-.37a1.37,1.37,0,0,1-.05-.4c0-.13-.05-.27-.07-.4h0a.25.25,0,0,0,0,.07l.16.39v0a.21.21,0,0,0,0,.06s0,0,0,0a4.19,4.19,0,0,0,.26.33l.08.08a2.17,2.17,0,0,0,.41.3l.39.17h0l.07,0,.23,0,.24,0h.08a1.71,1.71,0,0,1,.32,0,1.59,1.59,0,0,0,.43-.06l.38-.15,0,0a1.05,1.05,0,0,0,.29-.23,1.15,1.15,0,0,0,.21-.27l0,0,.16-.37a1.44,1.44,0,0,0,.05-.41C511.41,301.14,511.45,300.9,511.5,300.65Z" transform="translate(-317.73 -202.18)"/><path class="cls-1" d="M511.5,300.65c-.05.25-.09.49-.14.74a1.44,1.44,0,0,1-.05.41l-.16.37,0,0a1.15,1.15,0,0,1-.21.27,1.05,1.05,0,0,1-.29.23l0,0-.38.15a1.59,1.59,0,0,1-.43.06,1.71,1.71,0,0,0-.32,0h-.08l-.24,0-.23,0-.07,0h0l-.39-.17a2.17,2.17,0,0,1-.41-.3l-.08-.08a4.19,4.19,0,0,1-.26-.33s0,0,0,0a.21.21,0,0,1,0-.06v0l-.16-.39a.25.25,0,0,1,0-.07,1.09,1.09,0,0,1,0-.62s0,0,0-.06a1.76,1.76,0,0,1-.06-.41,53.5,53.5,0,0,1,2-13.74A53.56,53.56,0,0,1,511.5,300.65Z" transform="translate(-317.73 -202.18)"/><path class="cls-1" d="M511.17,368,510,370l-1.83-3,0,0a2,2,0,0,1,1.6-.21,2.06,2.06,0,0,1,1.24,1,1.55,1.55,0,0,1,.14.29Z" transform="translate(-317.73 -202.18)"/><path class="cls-1" d="M509.2,456.27c4,2.06,3.52,7.66.4,10.08C506.3,464.17,505.56,458.6,509.2,456.27Z" transform="translate(-317.73 -202.18)"/><path class="cls-1" d="M509.37,286.58a53.5,53.5,0,0,0-2,13.74,1.76,1.76,0,0,0,.06.41s0,0,0,.06a1.09,1.09,0,0,0,0,.62h0a84,84,0,0,0-3.26-13.13,29.1,29.1,0,0,0-5.67-9.75c-2.61-2.85-5.88-4.59-9.34-6.19-5.05-2.34-11.1-5.57-12.86-11a10.73,10.73,0,0,1-.5-3.64,1.48,1.48,0,0,1,.54-1.14l.06-.14a1.21,1.21,0,0,1,.4-.44,1.29,1.29,0,0,1,.53-.28,1.85,1.85,0,0,1,1.2.16l1,.72.14,0c4.67,1.28,9.37,2.47,14,3.85a12.43,12.43,0,0,1,8,6.17,94.48,94.48,0,0,1,4.56,10.72A97.46,97.46,0,0,1,509.37,286.58Zm-6.45-7.5a30.06,30.06,0,0,1,1.63,2.57c-1-2.94-2.21-5.83-3.41-8.68a37.13,37.13,0,0,0-2.77-5.88,8.74,8.74,0,0,0-5.09-3.56c-4.66-1.46-9.44-2.61-14.15-3.9.72,3.05,3.23,5.5,5.87,7.12,3.22,2,6.83,3.19,10.09,5.08A25,25,0,0,1,502.92,279.08Z" transform="translate(-317.73 -202.18)"/><path class="cls-1" d="M504.55,281.65a30.06,30.06,0,0,0-1.63-2.57,25,25,0,0,0-7.83-7.25c-3.26-1.89-6.87-3.1-10.09-5.08-2.64-1.62-5.15-4.07-5.87-7.12,4.71,1.29,9.49,2.44,14.15,3.9a8.74,8.74,0,0,1,5.09,3.56,37.13,37.13,0,0,1,2.77,5.88C502.34,275.82,503.51,278.71,504.55,281.65Z" transform="translate(-317.73 -202.18)"/><path class="cls-1" d="M453.15,271.91c.62,1.18-1.17,2.23-1.8,1a33.51,33.51,0,0,1-2.92-7.62,18.8,18.8,0,0,1-.62-3.94c0-1.38,0-2.78,0-4.17a1,1,0,0,1,2.08,0c0,1.3-.05,2.6,0,3.9a16.21,16.21,0,0,0,.56,3.66A31.3,31.3,0,0,0,453.15,271.91Z" transform="translate(-317.73 -202.18)"/><polyline class="cls-2" points="192.25 167.83 190.42 164.83 128.73 63.81"/><polyline class="cls-3" points="192.25 167.83 193.44 165.85 254.48 64.61"/><line class="cls-4" x1="126.9" y1="63.6" x2="126.75" y2="65.71"/><line class="cls-4" x1="128.54" y1="62.39" x2="128.23" y2="64.65"/></svg>