<svg id="Layer_1" data-name="Layer 1" xmlns="http://www.w3.org/2000/svg" viewBox="0 0 678 422.8"><defs><style>.cls-1{fill:#00000e;}.cls-2{fill:#00000f;}.cls-3,.cls-4,.cls-5{fill:none;}.cls-3,.cls-5{stroke:#00000e;stroke-miterlimit:10;}.cls-3{stroke-width:7px;}.cls-4{stroke:#00000b;stroke-linecap:round;stroke-linejoin:round;stroke-width:6px;}.cls-5{stroke-width:2px;}.cls-6{font-size:85px;fill:#bdccda;font-family:Nunito-Regular, Nunito;}.cls-7{font-size:64.81px;}.cls-7,.cls-8{font-family:Raleway-Medium, Raleway;font-weight:500;}.cls-8{font-size:83.78px;}</style></defs><path class="cls-1" d="M898.67,342.08a7.46,7.46,0,0,1,.2,3.81c-8.5,43.12-33,80.4-57.6,115.93-12.64,18.25-25.55,35.1-43,49.08a322.58,322.58,0,0,1-54.71,35.55,326.87,326.87,0,0,1-56.13,22.44c2.62,2.18,5.48,4.13,8,6.28a118.15,118.15,0,0,1,15.6,15.71c8.88,10.8,17.84,23.71,18.14,38.19.6,29.4-34.42,42.54-59.19,48.3h-2.24l-.84-.18a8,8,0,0,0-1-.1l-.29-.1c3-1.69,6-2,9.41-2.52,2.31-.38,4.63-.84,6.92-1.38.88-3.43-.46-7.26-4.93-8.17-2.55-.53-5.51-1.2-8.73-2,20.46-4.91,52.24-16,45.47-39.85-3.27-11.54-12-21.94-20.4-30.3-7-7.09-16.65-12.47-22.73-20.52a5.85,5.85,0,0,1-1.52-.76c3.74-2.9,4.32-9.6-.48-12.09a7.17,7.17,0,0,1,2.22-1l.26-.07a7.64,7.64,0,0,1,3.82-1,312.71,312.71,0,0,0,107.09-52.08c17.54-13.2,31.2-28.53,43.69-46.51,11.7-16.8,23.38-33.77,33.6-51.6,10-17.52,18.31-35.87,23.36-55.36q-29.91,2.67-59.46,8.14-17.49,3.24-34.8,7.47c-9.68,2.4-18.24,5.13-23.74,14-4.8,7.69-7.13,16.56-9.89,25.11-3,9.25-6.11,18.46-9.52,27.6-6.89,18.42-14.81,36.56-24.79,53.54-11,18.66-24.49,35.88-41.05,50a7.58,7.58,0,0,1-3.39,1.68,5.88,5.88,0,0,1-1.75.74l-1.62.4a7.2,7.2,0,0,0-1.8-13.1l-2.6-.62,2.19-.54h.32c30.3-26.52,48.7-63,62.26-100.36,3.42-9.4,6.54-18.91,9.6-28.45,2.78-8.69,5.73-17.75,11-25.27,12.81-18.14,37.62-20.4,57.81-24.37a666.44,666.44,0,0,1,80.32-10.93,6.05,6.05,0,0,1,6.78,5.24Z" transform="translate(-299 -254.57)"/><path class="cls-2" d="M882.73,351.9c-5.06,19.49-13.35,37.83-23.37,55.35-10.19,17.82-21.86,34.74-33.6,51.6-12.47,18-26.15,33.3-43.69,46.52A313.07,313.07,0,0,1,675,557.45a7.5,7.5,0,0,0-3.81,1l-.27.07a7.17,7.17,0,0,0-2.22,1,7.11,7.11,0,0,0-1.68-.64l-.26-.07a7.44,7.44,0,0,0-3.82-1,312.8,312.8,0,0,1-107.09-52.08c-17.54-13.2-31.2-28.54-43.69-46.51-11.7-16.86-23.37-33.77-33.6-51.6-10-17.54-18.32-35.87-23.36-55.36q29.9,2.67,59.46,8.14,17.49,3.24,34.8,7.47c9.68,2.4,18.23,5.11,23.75,14,4.8,7.69,7.12,16.56,9.87,25.11,3,9.25,6.12,18.45,9.53,27.6,6.89,18.43,14.81,36.57,24.79,53.55,11,18.66,24.53,35.86,41,49.93a7.49,7.49,0,0,0,3.38,1.68,6.36,6.36,0,0,0,1.76.75l3.54.87a7.49,7.49,0,0,0,5.54-.73l.08-.06,1.62-.39a6.23,6.23,0,0,0,1.76-.75,7.49,7.49,0,0,0,3.38-1.68c16.5-14.07,30-31.27,41-49.93,10-17,17.9-35.12,24.79-53.54,3.41-9.11,6.54-18.33,9.52-27.6,2.76-8.55,5.1-17.42,9.88-25.11,5.51-8.85,14.07-11.6,23.75-14q17.28-4.23,34.8-7.47Q852.79,354.53,882.73,351.9Z" transform="translate(-299 -254.57)"/><path class="cls-1" d="M748,331.43a8.71,8.71,0,0,1-.18,1.32l-3.49-.65L671.08,453.55h0a1.62,1.62,0,0,0-.17-.35,2.49,2.49,0,0,0-1.48-1.2,2.39,2.39,0,0,0-1.92.25h0l-74.08-121.1L590,331c1.87-41.83,36-75.27,76.8-76.38C709.39,253.44,746.26,287.75,748,331.43Zm-5-6.14v-5a1.25,1.25,0,1,0-2.5,0c0,1.56.07,3.12.06,4.68a19.76,19.76,0,0,1-.67,4.39,38.1,38.1,0,0,1-3.25,8.53c-.75,1.42,1.4,2.69,2.16,1.26a40.25,40.25,0,0,0,3.5-9.13,22.9,22.9,0,0,0,.7-4.73Zm-13.91-6.87c1.28-10.95-3.07-16.8-12.7-21.34-14.55-6.79-35.63-6.78-47.4,4.66-11.76-11.44-32.83-11.45-47.39-4.66-9.6,4.49-14,10.39-12.69,21.34a82,82,0,0,0,11.58,32.73,9.25,9.25,0,0,0,1.09,1.48,542.43,542.43,0,0,0,39.8,53.09,8.12,8.12,0,0,0,15.23,0,541,541,0,0,0,39.82-53.09,9.9,9.9,0,0,0,1.09-1.48,82,82,0,0,0,11.57-32.73ZM599.3,339.55c.75,1.42,2.9.16,2.16-1.2a37.41,37.41,0,0,1-3.25-8.54,19.86,19.86,0,0,1-.68-4.4v-4.68a1.25,1.25,0,0,0-2.49,0c0,1.67-.09,3.35,0,5a23,23,0,0,0,.74,4.73A40.1,40.1,0,0,0,599.3,339.55Z" transform="translate(-299 -254.57)"/><path class="cls-1" d="M743,320.35c0,1.67.09,3.34,0,5a22.21,22.21,0,0,1-.75,4.73,39.78,39.78,0,0,1-3.5,9.13c-.76,1.43-2.9.16-2.16-1.26a37.16,37.16,0,0,0,3.25-8.53,19.19,19.19,0,0,0,.67-4.39c0-1.56,0-3.12-.06-4.68a1.28,1.28,0,0,1,2.55,0Z" transform="translate(-299 -254.57)"/><path class="cls-1" d="M716.48,297.08c9.6,4.49,14,10.39,12.69,21.34a81.9,81.9,0,0,1-11.58,32.73,9.25,9.25,0,0,1-1.09,1.48,542.43,542.43,0,0,1-39.8,53.09,8.12,8.12,0,0,1-15.23,0,540.74,540.74,0,0,1-39.79-53.09,9.25,9.25,0,0,1-1.09-1.48A81.9,81.9,0,0,1,609,318.42c-1.29-10.95,3.07-16.8,12.69-21.34,14.56-6.79,35.63-6.78,47.39,4.66C680.81,290.35,701.89,290.35,716.48,297.08ZM712.42,319c.71-4.12.88-4-1.63-6.24-6.2-5.56-23.4-6-30.25.83-1.78,3.2-3.51,6.44-5.13,9.73a38.9,38.9,0,0,0-2.31,5.25c-.6,1.94-.78,3.71-2.08,5.36s-3.6.44-4.16-1.11c-.27-.72-.58-1.4-.87-2.11a2.91,2.91,0,0,1-.42-.8,34.17,34.17,0,0,0-2.58-5.8,39.58,39.58,0,0,1-2.32-5.3,9.34,9.34,0,0,1-.65-1.49c-3.6-10.57-25.47-11-32.64-4.56-2.51,2.25-2.4,2.12-1.63,6.24A66.07,66.07,0,0,0,627.4,326c.1.35.19.69.3,1a69.11,69.11,0,0,0,7,15.28,3.31,3.31,0,0,1,.39.44,512.65,512.65,0,0,0,34,46.26,509.44,509.44,0,0,0,34-46.26,3.31,3.31,0,0,1,.39-.44,68.69,68.69,0,0,0,7-15.28c.22-.74.44-1.5.65-2.27.46-1.92.91-3.87,1.26-5.84Z" transform="translate(-299 -254.57)"/><path class="cls-1" d="M713.81,623.15c6.77,23.88-25,34.94-45.46,39.85-20.48-5.08-50.81-16.17-44.19-39.6,3.27-11.53,12.06-21.94,20.4-30.29,7-7.09,16.66-12.48,22.73-20.53a6.55,6.55,0,0,0,1.94-1.06,5.91,5.91,0,0,0,1.53.76c6.07,8.05,15.68,13.43,22.73,20.52C701.75,601.21,710.54,611.6,713.81,623.15Z" transform="translate(-299 -254.57)"/><path class="cls-1" d="M709.35,320.63a13.25,13.25,0,0,1-.38,3.6c-1.79,7-9.36,11.1-15.6,14-4.16,1.92-8.08,4-11.21,7.43a35,35,0,0,0-6.81,11.7,98.69,98.69,0,0,0-3.82,15.35A64.39,64.39,0,0,0,669,355.82a166,166,0,0,1,9.37-24.51,14.93,14.93,0,0,1,9.6-7.41c5.56-1.65,11.2-3.08,16.8-4.61h.17l1.2-.85a1.36,1.36,0,0,1,.7-.23,1.33,1.33,0,0,1,.74,0,1.42,1.42,0,0,1,.64.34,1.36,1.36,0,0,1,.48.53l.07.17A1.76,1.76,0,0,1,709.35,320.63Zm-11,10.92c3.17-1.95,6.18-4.88,7-8.54-5.65,1.54-11.38,2.93-17,4.68a10.45,10.45,0,0,0-6.1,4.28,43.55,43.55,0,0,0-3.33,7c-1.44,3.43-2.84,6.9-4.09,10.42a34.1,34.1,0,0,1,2-3.08,29.92,29.92,0,0,1,9.39-8.7c3.88-2.26,8.25-3.73,12.11-6.1Z" transform="translate(-299 -254.57)"/><path class="cls-1" d="M705.35,323c-.86,3.6-3.87,6.59-7,8.54-3.86,2.4-8.2,3.84-12.11,6.1a29.92,29.92,0,0,0-9.39,8.7,34.1,34.1,0,0,0-2,3.08c1.2-3.52,2.65-7,4.09-10.42a43.55,43.55,0,0,1,3.33-7,10.45,10.45,0,0,1,6.1-4.28C694,325.94,699.68,324.55,705.35,323Z" transform="translate(-299 -254.57)"/><path class="cls-1" d="M677.07,665c4.48.92,5.81,4.8,4.93,8.18-2.29.54-4.61,1-6.92,1.38-3.36.54-6.37.82-9.41,2.52-3-1-5.92-2.06-8.9-3.06l-.46-.12c-1.45-3.66-.34-8.2,4.6-9.21,2.2-.45,4.71-1,7.44-1.64C671.56,663.79,674.48,664.43,677.07,665Z" transform="translate(-299 -254.57)"/><path class="cls-1" d="M675.26,530.69a7.21,7.21,0,0,1-2.5,9.78l-1.92.48a7.63,7.63,0,0,1-5.54-.72,7.4,7.4,0,0,1-3.31-4.31,7.2,7.2,0,0,1,5-8.86h0l1.35-.33,2.6.64A7.37,7.37,0,0,1,675.26,530.69Z" transform="translate(-299 -254.57)"/><path class="cls-1" d="M673.49,456.08a1.28,1.28,0,0,1,0,.39l-.15.2v.2a.38.38,0,0,0,0,.15.73.73,0,0,1-.17.18h-.08a6.87,6.87,0,0,1-.65,1,7.18,7.18,0,0,1-1.48,1.38h0l-.06.07a4.12,4.12,0,0,1-1,.36,4.07,4.07,0,0,1-1.77,0,3.25,3.25,0,0,1-1.53-.83,5.13,5.13,0,0,1-.74-.93l-.17-.27h0a.5.5,0,0,1-.19-.13,1.37,1.37,0,0,1-.25-.29.82.82,0,0,1-.12-.2.9.9,0,0,1-.08-.23h0a3.07,3.07,0,0,1-.38-.77c0-.22-.06-.44-.08-.67a2.37,2.37,0,0,1,.52-1.51,2.17,2.17,0,0,1,.71-.64l.6-.25h.15a3.55,3.55,0,0,1,1-1l2.2,3.6,1.43-2.4a2.6,2.6,0,0,1,1.68.73A2.43,2.43,0,0,1,673.49,456.08Z" transform="translate(-299 -254.57)"/><path class="cls-1" d="M672.76,540.47l-.08.06a7.56,7.56,0,0,1-5.55.73l-3.54-.88a6.72,6.72,0,0,1-1.75-.74,7.45,7.45,0,0,1-3.38-1.68c-16.5-14.08-30-31.27-41-49.93-10-17-17.9-35.13-24.79-53.56-3.41-9.11-6.54-18.31-9.53-27.6-2.75-8.54-5.09-17.41-9.88-25.1-5.52-8.87-14.06-11.62-23.74-14q-17.28-4.25-34.8-7.48-29.52-5.51-59.46-8.14c5,19.49,13.34,37.83,23.36,55.36,10.19,17.82,21.86,34.73,33.6,51.6,12.47,18,26.15,33.3,43.69,46.51A312.71,312.71,0,0,0,663,557.72a7.54,7.54,0,0,1,3.82,1l.26.07a7.76,7.76,0,0,1,1.68.64c-4.37,2.8-3.48,9.48.48,12.1a6.3,6.3,0,0,1-1.94,1.05c-6.08,8-15.7,13.44-22.73,20.53-8.31,8.4-17.1,18.76-20.4,30.29-6.63,23.39,23.71,34.48,44.18,39.6-2.72.65-5.23,1.2-7.44,1.65-4.93,1-6,5.54-4.59,9.2l.45.12c3,1,5.92,2.08,8.91,3.06l-.12.08c-24.57-6-57.35-19.27-56.78-47.72.3-14.5,9.26-27.41,18.14-38.2a119.44,119.44,0,0,1,15.6-15.72c2.56-2.13,5.42-4.1,8-6.27a327.65,327.65,0,0,1-56.13-22.43,322.63,322.63,0,0,1-54.71-35.56c-17.41-14-30.33-30.84-43-49.09-24.6-35.57-49.2-72.79-57.6-115.92a7.43,7.43,0,0,1,.2-3.8,6,6,0,0,1,6.57-5.37l.23,0A668.43,668.43,0,0,1,526.45,348c20.19,4,45,6.23,57.81,24.37,5.31,7.54,8.26,16.58,11,25.28,3,9.53,6.16,19,9.6,28.44,13.56,37.36,32,73.85,62.27,100.37l.31.06.94.23-1.35.34a7.2,7.2,0,0,0-1.71,13.2,7.63,7.63,0,0,0,5.54.72Z" transform="translate(-299 -254.57)"/><path class="cls-1" d="M671.48,372.73v.1a2.87,2.87,0,0,1-.07.5v.07a1.37,1.37,0,0,1,0,.75v.07l-.2.47h0a.06.06,0,0,1,0,.06h0l-.31.39-.09.1a4.54,4.54,0,0,1-.5.36l-.46.2h-1.17a1.46,1.46,0,0,1-.51-.06l-.45-.19h0a1.87,1.87,0,0,1-.35-.28,1.31,1.31,0,0,1-.25-.32v-.06c-.07-.14-.13-.29-.19-.44a2,2,0,0,1-.06-.48,3.7,3.7,0,0,0-.08-.48h0a.11.11,0,0,0,0,.08l.19.47h0a.09.09,0,0,0,0,.07h0c.1.14.2.27.31.4l.1.09a2.47,2.47,0,0,0,.49.36l.47.21h.74a1.21,1.21,0,0,1,.38,0,1.82,1.82,0,0,0,.52-.08l.46-.18h0a1.13,1.13,0,0,0,.34-.27,1.64,1.64,0,0,0,.26-.33h0l.19-.44a2.05,2.05,0,0,0,.06-.49A1.94,1.94,0,0,0,671.48,372.73Z" transform="translate(-299 -254.57)"/><path class="cls-1" d="M671.48,372.73c-.06.3-.11.59-.17.89a2.05,2.05,0,0,1-.06.49l-.19.44h0a1.59,1.59,0,0,1-.25.33,1.31,1.31,0,0,1-.35.27h0l-.46.18a1.81,1.81,0,0,1-.51.08,1.27,1.27,0,0,0-.39,0h-.74l-.47-.21a2.47,2.47,0,0,1-.49-.36l-.1-.09c-.11-.13-.21-.26-.31-.4h0v-.07h0l-.19-.47a.11.11,0,0,1,0-.08,1.37,1.37,0,0,1,0-.75v-.07a1.66,1.66,0,0,1-.07-.49,63.88,63.88,0,0,1,2.4-16.49A64.45,64.45,0,0,1,671.48,372.73Z" transform="translate(-299 -254.57)"/><path class="cls-1" d="M671.08,453.55l-1.4,2.4-2.2-3.6h0a2.4,2.4,0,0,1,1.92-.25,2.44,2.44,0,0,1,1.49,1.2,1.89,1.89,0,0,1,.17.35Z" transform="translate(-299 -254.57)"/><path class="cls-1" d="M668.72,559.47c4.8,2.48,4.22,9.2.48,12.1C665.24,569,664.35,562.27,668.72,559.47Z" transform="translate(-299 -254.57)"/><path class="cls-1" d="M668.92,355.85a64.24,64.24,0,0,0-2.4,16.48,2.87,2.87,0,0,0,.07.5v.07a1.33,1.33,0,0,0,0,.74h0a99.06,99.06,0,0,0-3.91-15.75,34.72,34.72,0,0,0-6.8-11.7c-3.13-3.42-7.06-5.51-11.21-7.43-6.06-2.81-13.32-6.69-15.43-13.2a12.94,12.94,0,0,1-.6-4.37,1.78,1.78,0,0,1,.65-1.37l.07-.17a1.41,1.41,0,0,1,.48-.52,1.44,1.44,0,0,1,.63-.34,2.23,2.23,0,0,1,1.44.19l1.2.87h.17c5.61,1.53,11.25,3,16.8,4.62a14.86,14.86,0,0,1,9.6,7.4,111.77,111.77,0,0,1,5.47,12.86A114.5,114.5,0,0,1,668.92,355.85Zm-7.74-9a34.1,34.1,0,0,1,2,3.08c-1.2-3.53-2.65-7-4.09-10.42a44.93,44.93,0,0,0-3.33-7.05,10.42,10.42,0,0,0-6.11-4.27c-5.59-1.76-11.32-3.14-17-4.68.87,3.66,3.88,6.6,7,8.54,3.86,2.4,8.19,3.83,12.11,6.1a29.92,29.92,0,0,1,9.39,8.7Z" transform="translate(-299 -254.57)"/><path class="cls-1" d="M663.14,349.93a34.1,34.1,0,0,0-2-3.08,29.92,29.92,0,0,0-9.39-8.7c-3.92-2.27-8.25-3.72-12.11-6.1-3.17-1.94-6.18-4.88-7-8.54,5.66,1.54,11.39,2.92,17,4.68a10.42,10.42,0,0,1,6.11,4.27,44.93,44.93,0,0,1,3.33,7.05C660.49,342.93,661.89,346.4,663.14,349.93Z" transform="translate(-299 -254.57)"/><path class="cls-1" d="M601.46,338.24c.74,1.42-1.41,2.68-2.16,1.2a40.35,40.35,0,0,1-3.51-9.14,23,23,0,0,1-.74-4.73v-5a1.25,1.25,0,1,1,2.5,0c0,1.56-.06,3.12,0,4.68a19.28,19.28,0,0,0,.67,4.39A37.2,37.2,0,0,0,601.46,338.24Z" transform="translate(-299 -254.57)"/><polyline class="cls-3" points="370.65 201.39 368.46 197.79 294.43 76.56"/><polyline class="cls-4" points="370.65 201.39 372.08 199.01 445.33 77.53"/><line class="cls-5" x1="292.23" y1="76.31" x2="292.05" y2="78.84"/><line class="cls-5" x1="294.2" y1="74.86" x2="293.83" y2="77.57"/><text class="cls-6" transform="translate(342.28 398.09)">&amp;</text><text x="-299" y="-254.57"/><text class="cls-7" transform="matrix(1.04, -0.64, 0.56, 0.91, 470.4, 367.15)">M</text><text class="cls-7" transform="matrix(0.9, -0.82, 0.72, 0.79, 533.29, 326.9)">Y</text><text class="cls-7" transform="translate(573.07 290.31) rotate(-50.69) scale(1.22 1.07)">S</text><text class="cls-7" transform="matrix(0.63, -1.04, 0.92, 0.55, 606.07, 249.49)">T</text><text class="cls-7" transform="translate(631.82 204.98) rotate(-64.67) scale(1.22 1.07)">I</text><text class="cls-7" transform="translate(642.51 183.93) rotate(-70.4) scale(1.22 1.07)">C</text><text class="cls-8" transform="matrix(0.66, 0.81, -0.78, 0.63, 90.12, 211.01)">W</text><text class="cls-8" transform="matrix(0.74, 0.75, -0.71, 0.7, 152, 284.15)">I</text><text class="cls-8" transform="translate(169.54 302.49) rotate(41.39) scale(1.05 1)">S</text><text class="cls-8" transform="translate(212.57 340.2) rotate(35.71) scale(1.05 1)">E</text></svg>